<svg width="29" height="29" viewBox="0 0 29 29" fill="none" xmlns="http://www.w3.org/2000/svg">
<path d="M14.8625 3.02083C11.8417 3.02083 8.94167 4.22917 6.76667 6.1625L6.525 4.22917C6.525 3.50417 5.92083 3.02083 5.19583 3.14167C4.47083 3.14167 3.9875 3.74583 4.10833 4.47083L4.35 7.73334C4.47083 9.30417 5.8 10.5125 7.37083 10.5125H7.6125L10.875 10.2708C11.6 10.2708 12.0833 9.66667 11.9625 8.94167C11.9625 8.21667 11.3583 7.73334 10.6333 7.85417L8.21666 7.975C10.0292 6.40417 12.325 5.4375 14.7417 5.4375C20.0583 5.4375 24.4083 9.7875 24.4083 15.1042C24.4083 20.4208 20.0583 24.7708 14.7417 24.7708C9.425 24.7708 5.075 20.4208 5.075 15.1042C5.075 14.3792 4.59167 13.8958 3.86667 13.8958C3.14167 13.8958 2.65833 14.3792 2.65833 15.1042C2.65833 21.75 8.09583 27.1875 14.7417 27.1875C21.3875 27.1875 26.825 21.75 26.825 15.1042C26.9458 8.45833 21.5083 3.02083 14.8625 3.02083Z" fill="#F9D48B"/>
</svg>
